<?xml version="1.0" encoding="utf-8"?>
<!-- Generator: Adobe Illustrator 24.1.3, SVG Export Plug-In . SVG Version: 6.00 Build 0)  -->
<svg version="1.1" id="Layer_1" xmlns="http://www.w3.org/2000/svg" xmlns:xlink="http://www.w3.org/1999/xlink" x="0px" y="0px"
	 viewBox="0 0 128 128" enable-background="new 0 0 128 128" xml:space="preserve">
<rect x="85.16666" y="85.16666" transform="matrix(-1.836970e-16 1 -1 -1.836970e-16 213.16667 -0.16667)" fill="#0030A5" width="43" height="42.66667"/>
<rect x="85.16666" y="0.16667" transform="matrix(-1.836970e-16 1 -1 -1.836970e-16 128.16667 -85.16666)" fill="#0065DE" width="43" height="42.66667"/>
<rect x="85.16666" y="42.5" transform="matrix(-1.836970e-16 1 -1 -1.836970e-16 170.5 -42.5)" fill="#0048D6" width="42.66667" height="43"/>
<rect x="42.5" y="42.5" transform="matrix(-1.836970e-16 1 -1 -1.836970e-16 127.83334 0.16667)" fill="#0071EB" width="42.66667" height="43"/>
<rect x="-0.16667" y="0.16667" transform="matrix(-1.836970e-16 1 -1 -1.836970e-16 42.83333 0.16667)" fill="#01A6FC" width="43" height="42.66667"/>
<rect x="-0.16667" y="85.16666" transform="matrix(-1.836970e-16 1 -1 -1.836970e-16 127.83334 85.16666)" fill="#0368F9" width="43" height="42.66667"/>
<rect x="0" y="42.66667" transform="matrix(-1.836970e-16 1 -1 -1.836970e-16 85.33334 42.66667)" fill="#038AF9" width="42.66667" height="42.66667"/>
</svg>
