<svg width="620" height="180" viewBox="0 0 620 180" fill="none" xmlns="http://www.w3.org/2000/svg">
<path fill-rule="evenodd" clip-rule="evenodd" d="M0 44.7134V135.054L78 180L156 135.054V44.7134L78 0L0 44.7134ZM23 121.5V59.5L78 28.1975L132 59.5L78 89.4268V118.771L132 89.4268V121.5L78 151.803L23 121.5Z" fill="#474bff"/>
<path d="M244.8 144.304V57.8199H221V34.8499H268.136V144.304H244.8Z" fill="black"/>
<path d="M328.698 146C316.438 146 306.444 141.889 298.717 133.667C290.99 125.445 287.126 114.962 287.126 102.218V76.7817C287.126 64.0377 290.99 53.5548 298.717 45.3329C306.444 37.111 316.438 33 328.698 33C340.856 33 350.798 37.111 358.525 45.3329C366.252 53.5548 370.116 64.0377 370.116 76.7817V102.218C370.116 114.962 366.252 125.445 358.525 133.667C350.798 141.889 340.856 146 328.698 146ZM328.698 123.03C334.159 123.03 338.538 121.18 341.835 117.48C345.132 113.78 346.78 108.693 346.78 102.218V76.7817C346.78 70.307 345.132 65.2197 341.835 61.5198C338.538 57.8199 334.159 55.97 328.698 55.97C323.135 55.97 318.705 57.8199 315.408 61.5198C312.111 65.2197 310.462 70.307 310.462 76.7817V102.218C310.462 108.693 312.111 113.78 315.408 117.48C318.705 121.18 323.135 123.03 328.698 123.03Z" fill="black"/>
<path d="M426.495 146C414.235 146 404.241 141.889 396.514 133.667C388.787 125.445 384.923 114.962 384.923 102.218V76.7817C384.923 64.0377 388.787 53.5548 396.514 45.3329C404.241 37.111 414.235 33 426.495 33C438.653 33 448.595 37.111 456.322 45.3329C464.049 53.5548 467.913 64.0377 467.913 76.7817V102.218C467.913 114.962 464.049 125.445 456.322 133.667C448.595 141.889 438.653 146 426.495 146ZM426.495 123.03C431.956 123.03 436.335 121.18 439.632 117.48C442.928 113.78 444.577 108.693 444.577 102.218V76.7817C444.577 70.307 442.928 65.2197 439.632 61.5198C436.335 57.8199 431.956 55.97 426.495 55.97C420.932 55.97 416.502 57.8199 413.205 61.5198C409.908 65.2197 408.259 70.307 408.259 76.7817V102.218C408.259 108.693 409.908 113.78 413.205 117.48C416.502 121.18 420.932 123.03 426.495 123.03Z" fill="black"/>
<path d="M507.653 34.8499V121.334H531.453V144.304H484.317V34.8499H507.653Z" fill="black"/>
<path d="M581.364 146C570.958 146 561.84 142.814 554.01 136.442C546.18 129.967 542.059 121.797 541.647 111.93H565.755C566.58 115.219 568.434 117.891 571.319 119.947C574.204 122.002 577.552 123.03 581.364 123.03C586.207 123.03 589.967 121.643 592.646 118.868C595.325 116.093 596.664 112.444 596.664 107.922C596.664 103.606 595.222 100.009 592.337 97.131C589.452 94.2533 585.846 92.8145 581.519 92.8145C577.501 92.8145 574.101 93.8936 571.319 96.0518C568.537 98.1073 566.528 100.831 565.292 104.222L545.047 97.9018V34.8499H611.655V57.3574H565.755V74.7776C569.146 72.3624 580.231 71.8486 586 71.8486C596.303 71.8486 604.546 75.3429 610.727 82.3315C616.909 89.3201 620 98.4156 620 109.618C620 120.923 616.497 129.813 609.491 136.288C602.588 142.763 593.212 146 581.364 146Z" fill="black"/>
</svg>
